solid exported
	facet normal 0.023853951201984146 -0.023106613596643732 -0.9994483845702834
		outer loop
			vertex 7.483001237189171 90.95043815202371 -122.22220760986602
			vertex 97.52399790153322 107.78595467351624 -120.4624151155258
			vertex 102.94633064690697 54.20366601717251 -119.09421109276082
		endloop
	endfacet
	facet normal 0.9303850594834957 0.24553965951151124 0.27220197776074945
		outer loop
			vertex 104.16874468848164 47.777330891170095 75.79541283183971
			vertex 74.45946318878578 118.34425764905791 113.68673364901042
			vertex 87.94460317605626 51.133869915591276 128.22168663891716
		endloop
	endfacet
	facet normal 0.05893209612664096 0.9674652096526486 0.24604486614818258
		outer loop
			vertex -60.678726028260826 135.52150882874412 33.73401889879915
			vertex -118.49522136338237 122.41365454310835 99.12306971384169
			vertex -28.648939553794662 111.2185614302216 121.62316685458791
		endloop
	endfacet
	facet normal 0.24753413781600153 0.95324014913539 0.17337839742029135
		outer loop
			vertex -60.678726028260826 135.52150882874412 33.73401889879915
			vertex -28.648939553794662 111.2185614302216 121.62316685458791
			vertex -10.82109147742699 117.59366051943834 61.119657966874
		endloop
	endfacet
	facet normal 0.0605261641179328 -0.9974276913309387 0.038400312803451055
		outer loop
			vertex 97.92494314352734 -106.8328211132175 42.006117511318735
			vertex 104.41758395354464 -103.58335340948543 116.17568069013942
			vertex -27.053713038830665 -111.37588535421128 120.99246830992342
		endloop
	endfacet
	facet normal 0.09909742753745729 0.09955930298232789 0.9900846655943781
		outer loop
			vertex -28.648939553794662 111.2185614302216 121.62316685458791
			vertex -100.43602701366672 50.13467182217846 134.950698962748
			vertex -2.347668982740686 59.85522087548452 124.15558677486842
		endloop
	endfacet
	facet normal -0.225682492191571 -0.969921961087758 -0.09120746744581515
		outer loop
			vertex -45.94716966016858 -111.12012482508908 9.947088507919943
			vertex -101.15393344132826 -108.63789631934924 120.15332904167735
			vertex -105.64148607580319 -97.57478676246137 13.609521534585838
		endloop
	endfacet
	facet normal 0.10400223101080404 0.9883103988757135 -0.11147237962340191
		outer loop
			vertex 12.116640662774898 112.25243827079612 -58.18089226000666
			vertex -74.89462624282987 117.3733798966532 -93.95913646600093
			vertex -6.500676445710269 120.11481942658793 -5.842989712435838
		endloop
	endfacet
	facet normal -0.12284767194819943 0.9740629699879525 -0.19002573508647938
		outer loop
			vertex -6.500676445710269 120.11481942658793 -5.842989712435838
			vertex 48.53180493448872 135.23434625109803 36.08164213166219
			vertex 12.116640662774898 112.25243827079612 -58.18089226000666
		endloop
	endfacet
	facet normal -0.0690489943306258 0.9887301608970485 -0.13283412706991388
		outer loop
			vertex -110.54350537729715 119.60470569557219 -58.819835501790294
			vertex -60.678726028260826 135.52150882874412 33.73401889879915
			vertex -74.89462624282987 117.3733798966532 -93.95913646600093
		endloop
	endfacet
	facet normal 0.9930788792245695 0.10198350400720928 0.05825551088510311
		outer loop
			vertex 102.94633064690697 54.20366601717251 -119.09421109276082
			vertex 97.52399790153322 107.78595467351624 -120.4624151155258
			vertex 95.38954323064536 55.19114768751297 7.997269601617063
		endloop
	endfacet
	facet normal -0.9512731338057725 -0.07707899372184639 0.2985603014906242
		outer loop
			vertex -118.49522136338237 122.41365454310835 99.12306971384169
			vertex -128.5893793939722 52.569614980822735 48.92949221877643
			vertex -113.31752908243925 57.49799439578692 98.8610315306687
		endloop
	endfacet
	facet normal -0.04231171651413895 0.027574847655668297 0.9987238589431985
		outer loop
			vertex -28.648939553794662 111.2185614302216 121.62316685458791
			vertex -2.347668982740686 59.85522087548452 124.15558677486842
			vertex 87.94460317605626 51.133869915591276 128.22168663891716
		endloop
	endfacet
	facet normal 0.05953451992436169 0.2223961529304159 0.9731369852693541
		outer loop
			vertex -28.648939553794662 111.2185614302216 121.62316685458791
			vertex 87.94460317605626 51.133869915591276 128.22168663891716
			vertex 74.45946318878578 118.34425764905791 113.68673364901042
		endloop
	endfacet
	facet normal -0.9859016645003787 -0.003488638770991427 -0.1672893820148436
		outer loop
			vertex -128.5893793939722 52.569614980822735 48.92949221877643
			vertex -110.54350537729715 119.60470569557219 -58.819835501790294
			vertex -110.52691931043137 20.5830975243598 -56.852595342625136
		endloop
	endfacet
	facet normal -0.9465195594451191 -0.11625722042953279 0.30097339132524153
		outer loop
			vertex -113.31752908243925 57.49799439578692 98.8610315306687
			vertex -128.5893793939722 52.569614980822735 48.92949221877643
			vertex -112.49612463229369 -37.34091432265541 64.81073727451076
		endloop
	endfacet
	facet normal 0.9895633626833217 -0.11619662535004724 0.08522144971858665
		outer loop
			vertex 116.81411650559949 -2.8068187814747034 -29.768407343167382
			vertex 108.16414480055937 -31.630166941990865 31.372529794366528
			vertex 105.40753566125841 -112.55549686382619 -46.95764241942925
		endloop
	endfacet
	facet normal 0.9766896405010412 -0.07660462892372179 -0.2005220111743488
		outer loop
			vertex 98.51351525056089 10.604850747523415 -124.02939902960497
			vertex 102.94633064690697 54.20366601717251 -119.09421109276082
			vertex 116.81411650559949 -2.8068187814747034 -29.768407343167382
		endloop
	endfacet
	facet normal -0.07910977266785454 -0.019308992674195065 -0.9966788884441912
		outer loop
			vertex -102.4463757555186 -79.74741822613214 -116.34186791834509
			vertex -52.851397499989616 -55.63273475594269 -120.74557080863087
			vertex -49.304476753156905 -110.85525058048006 -119.95725767321346
		endloop
	endfacet
	facet normal 0.4558376554202932 0.11739589287070187 0.8822869353209425
		outer loop
			vertex -23.54209398984335 9.131420468753959 103.1436366791786
			vertex -56.17394785441002 4.8715373834197635 120.56985021636137
			vertex -27.053713038830665 -111.37588535421128 120.99246830992342
		endloop
	endfacet
	facet normal -0.0761898201970408 -0.35425530659073323 0.9320398537888003
		outer loop
			vertex 87.94460317605626 51.133869915591276 128.22168663891716
			vertex -2.347668982740686 59.85522087548452 124.15558677486842
			vertex -23.54209398984335 9.131420468753959 103.1436366791786
		endloop
	endfacet
	facet normal -0.01129387052112318 0.000806132633546383 0.9999358972648343
		outer loop
			vertex -56.17394785441002 4.8715373834197635 120.56985021636137
			vertex -101.15393344132826 -108.63789631934924 120.15332904167735
			vertex -27.053713038830665 -111.37588535421128 120.99246830992342
		endloop
	endfacet
	facet normal 0.9941674519146121 0.08624562664849775 -0.0647515979541461
		outer loop
			vertex 104.16874468848164 47.777330891170095 75.79541283183971
			vertex 112.42692485865336 -13.061018265908388 121.55447490189545
			vertex 108.16414480055937 -31.630166941990865 31.372529794366528
		endloop
	endfacet
	facet normal 0.32034869167861046 -0.4223967535788916 -0.8479137328206308
		outer loop
			vertex 103.46146396127097 -51.165390654363364 -120.528150986338
			vertex 107.31342918278096 -91.50037246131069 -98.97957041406698
			vertex 34.149227617805536 -110.2679712323843 -117.27233164117933
		endloop
	endfacet
	facet normal -0.9930861029039272 -0.10561425096398921 -0.05124082564133978
		outer loop
			vertex -109.1813967560629 -39.914614859320864 -67.91282650526227
			vertex -102.4463757555186 -79.74741822613214 -116.34186791834509
			vertex -102.80452862325183 -105.6146776623118 -56.08468379105943
		endloop
	endfacet
	facet normal -0.7530303847014007 -0.5541456340578703 -0.3547786013432343
		outer loop
			vertex -104.30610660112325 46.90698377899116 -111.17302942213428
			vertex -76.16960572910284 -4.402237466703184 -90.75144582895518
			vertex -110.52691931043137 20.5830975243598 -56.852595342625136
		endloop
	endfacet
	facet normal 0.9883887281581759 -0.12171206302656327 0.09096095735908633
		outer loop
			vertex 108.16414480055937 -31.630166941990865 31.372529794366528
			vertex 97.92494314352734 -106.8328211132175 42.006117511318735
			vertex 105.40753566125841 -112.55549686382619 -46.95764241942925
		endloop
	endfacet
	facet normal 0.27035147790115904 0.9591283373316208 -0.08356381348490326
		outer loop
			vertex 97.52399790153322 107.78595467351624 -120.4624151155258
			vertex 48.53180493448872 135.23434625109803 36.08164213166219
			vertex 106.1617029955305 121.1082822376502 60.39383824995639
		endloop
	endfacet
	facet normal 0.31057938780771155 0.9489102625529382 0.05576519963831411
		outer loop
			vertex -60.678726028260826 135.52150882874412 33.73401889879915
			vertex -10.82109147742699 117.59366051943834 61.119657966874
			vertex -6.500676445710269 120.11481942658793 -5.842989712435838
		endloop
	endfacet
	facet normal 0.8494132682522706 0.4792795028056125 -0.22088064176699876
		outer loop
			vertex -4.0646152189818565 112.5114119144946 -119.84520369443999
			vertex 12.116640662774898 112.25243827079612 -58.18089226000666
			vertex 7.483001237189171 90.95043815202371 -122.22220760986602
		endloop
	endfacet
	facet normal -0.4913985528981071 -0.7992471638803552 -0.34602230164955416
		outer loop
			vertex -102.4463757555186 -79.74741822613214 -116.34186791834509
			vertex -49.304476753156905 -110.85525058048006 -119.95725767321346
			vertex -102.80452862325183 -105.6146776623118 -56.08468379105943
		endloop
	endfacet
	facet normal -0.9933684283155854 -0.002450045298486773 -0.11494852284331211
		outer loop
			vertex -110.52691931043137 20.5830975243598 -56.852595342625136
			vertex -110.54350537729715 119.60470569557219 -58.819835501790294
			vertex -104.30610660112325 46.90698377899116 -111.17302942213428
		endloop
	endfacet
	facet normal -0.9438839563690775 -0.07658132548655852 0.3212761701337023
		outer loop
			vertex -118.49522136338237 122.41365454310835 99.12306971384169
			vertex -113.31752908243925 57.49799439578692 98.8610315306687
			vertex -100.43602701366672 50.13467182217846 134.950698962748
		endloop
	endfacet
	facet normal -0.17091073979454405 0.9493383267215609 0.2637162498603161
		outer loop
			vertex 48.53180493448872 135.23434625109803 36.08164213166219
			vertex -10.82109147742699 117.59366051943834 61.119657966874
			vertex 74.45946318878578 118.34425764905791 113.68673364901042
		endloop
	endfacet
	facet normal 0.17358983083210675 0.9727478878791144 0.15371440159725674
		outer loop
			vertex 48.53180493448872 135.23434625109803 36.08164213166219
			vertex 74.45946318878578 118.34425764905791 113.68673364901042
			vertex 106.1617029955305 121.1082822376502 60.39383824995639
		endloop
	endfacet
	facet normal -0.6232167865462463 0.4211026287486113 -0.6589942435469219
		outer loop
			vertex -104.30610660112325 46.90698377899116 -111.17302942213428
			vertex -110.54350537729715 119.60470569557219 -58.819835501790294
			vertex -74.89462624282987 117.3733798966532 -93.95913646600093
		endloop
	endfacet
	facet normal -0.1750288018566184 0.40181016980649276 0.8988400892042556
		outer loop
			vertex -28.648939553794662 111.2185614302216 121.62316685458791
			vertex -118.49522136338237 122.41365454310835 99.12306971384169
			vertex -100.43602701366672 50.13467182217846 134.950698962748
		endloop
	endfacet
	facet normal -0.06205943927732331 0.9943185645097283 0.08648247376143697
		outer loop
			vertex 74.45946318878578 118.34425764905791 113.68673364901042
			vertex -10.82109147742699 117.59366051943834 61.119657966874
			vertex -28.648939553794662 111.2185614302216 121.62316685458791
		endloop
	endfacet
	facet normal -0.3403309076010796 0.35477429618684747 -0.8708100091848695
		outer loop
			vertex -57.10586441545229 52.915143488021386 -127.17211129182033
			vertex -104.30610660112325 46.90698377899116 -111.17302942213428
			vertex -74.89462624282987 117.3733798966532 -93.95913646600093
		endloop
	endfacet
	facet normal -0.8297154282906666 0.05712369142744526 -0.5552559697420081
		outer loop
			vertex -57.10586441545229 52.915143488021386 -127.17211129182033
			vertex -74.89462624282987 117.3733798966532 -93.95913646600093
			vertex -53.92564294568592 117.64415474217276 -125.26509668208746
		endloop
	endfacet
	facet normal 0.008847621554621413 0.11425794176857443 -0.9934117184408665
		outer loop
			vertex -4.0646152189818565 112.5114119144946 -119.84520369443999
			vertex 7.483001237189171 90.95043815202371 -122.22220760986602
			vertex -57.10586441545229 52.915143488021386 -127.17211129182033
		endloop
	endfacet
	facet normal 0.11045843630339608 0.02384583319705257 -0.9935946407305883
		outer loop
			vertex -4.0646152189818565 112.5114119144946 -119.84520369443999
			vertex -57.10586441545229 52.915143488021386 -127.17211129182033
			vertex -53.92564294568592 117.64415474217276 -125.26509668208746
		endloop
	endfacet
	facet normal -0.21406759199991654 -0.971337259295854 0.10333922178425856
		outer loop
			vertex -45.94716966016858 -111.12012482508908 9.947088507919943
			vertex -105.64148607580319 -97.57478676246137 13.609521534585838
			vertex -102.80452862325183 -105.6146776623118 -56.08468379105943
		endloop
	endfacet
	facet normal -0.09692552153505478 -0.9952915236683523 0.0004755934059178539
		outer loop
			vertex -45.94716966016858 -111.12012482508908 9.947088507919943
			vertex -102.80452862325183 -105.6146776623118 -56.08468379105943
			vertex -49.304476753156905 -110.85525058048006 -119.95725767321346
		endloop
	endfacet
	facet normal 0.008348995826096805 -0.99912568783822 -0.04096528006128841
		outer loop
			vertex 34.149227617805536 -110.2679712323843 -117.27233164117933
			vertex 105.40753566125841 -112.55549686382619 -46.95764241942925
			vertex -49.304476753156905 -110.85525058048006 -119.95725767321346
		endloop
	endfacet
	facet normal 0.0808569177444778 -0.9942112395774418 0.07075429280792461
		outer loop
			vertex 105.40753566125841 -112.55549686382619 -46.95764241942925
			vertex 97.92494314352734 -106.8328211132175 42.006117511318735
			vertex -27.053713038830665 -111.37588535421128 120.99246830992342
		endloop
	endfacet
	facet normal -0.010150919440471268 -0.9999468999580922 -0.00177654122223048
		outer loop
			vertex -49.304476753156905 -110.85525058048006 -119.95725767321346
			vertex 105.40753566125841 -112.55549686382619 -46.95764241942925
			vertex -45.94716966016858 -111.12012482508908 9.947088507919943
		endloop
	endfacet
	facet normal -0.009726740554256177 -0.9999524840660432 -0.0006481730786213436
		outer loop
			vertex 105.40753566125841 -112.55549686382619 -46.95764241942925
			vertex -27.053713038830665 -111.37588535421128 120.99246830992342
			vertex -45.94716966016858 -111.12012482508908 9.947088507919943
		endloop
	endfacet
	facet normal -0.9944004895641547 -0.10169215248672638 -0.028746695065454735
		outer loop
			vertex -109.1813967560629 -39.914614859320864 -67.91282650526227
			vertex -102.80452862325183 -105.6146776623118 -56.08468379105943
			vertex -105.64148607580319 -97.57478676246137 13.609521534585838
		endloop
	endfacet
	facet normal -0.9310135434743592 -0.31582081990878025 -0.1829507900487543
		outer loop
			vertex -109.1813967560629 -39.914614859320864 -67.91282650526227
			vertex -105.64148607580319 -97.57478676246137 13.609521534585838
			vertex -118.2073622096841 -54.507415557004606 3.2101588499438094
		endloop
	endfacet
	facet normal 0.16266076188333747 0.9741815561077015 -0.15656235908771202
		outer loop
			vertex -6.500676445710269 120.11481942658793 -5.842989712435838
			vertex -74.89462624282987 117.3733798966532 -93.95913646600093
			vertex -60.678726028260826 135.52150882874412 33.73401889879915
		endloop
	endfacet
	facet normal -0.09546084909021423 0.9749647748973224 -0.20082558104083506
		outer loop
			vertex 97.52399790153322 107.78595467351624 -120.4624151155258
			vertex 12.116640662774898 112.25243827079612 -58.18089226000666
			vertex 48.53180493448872 135.23434625109803 36.08164213166219
		endloop
	endfacet
	facet normal -0.2530891127356626 0.9669795982953846 -0.029939230036393427
		outer loop
			vertex -110.54350537729715 119.60470569557219 -58.819835501790294
			vertex -118.49522136338237 122.41365454310835 99.12306971384169
			vertex -60.678726028260826 135.52150882874412 33.73401889879915
		endloop
	endfacet
	facet normal -0.9920664498455304 0.0009181768395028592 -0.12571124071528925
		outer loop
			vertex -110.52691931043137 20.5830975243598 -56.852595342625136
			vertex -109.1813967560629 -39.914614859320864 -67.91282650526227
			vertex -118.2073622096841 -54.507415557004606 3.2101588499438094
		endloop
	endfacet
	facet normal -0.9867017057372464 -0.02724992760905088 -0.1602410226518488
		outer loop
			vertex -110.52691931043137 20.5830975243598 -56.852595342625136
			vertex -118.2073622096841 -54.507415557004606 3.2101588499438094
			vertex -128.5893793939722 52.569614980822735 48.92949221877643
		endloop
	endfacet
	facet normal 0.9520238830053094 0.20197589472145605 0.22990490238131142
		outer loop
			vertex 95.38954323064536 55.19114768751297 7.997269601617063
			vertex 108.16414480055937 -31.630166941990865 31.372529794366528
			vertex 116.81411650559949 -2.8068187814747034 -29.768407343167382
		endloop
	endfacet
	facet normal 0.947578983137613 0.31494341010519766 0.05389544644213039
		outer loop
			vertex 95.38954323064536 55.19114768751297 7.997269601617063
			vertex 116.81411650559949 -2.8068187814747034 -29.768407343167382
			vertex 102.94633064690697 54.20366601717251 -119.09421109276082
		endloop
	endfacet
	facet normal 0.03267095350369488 -0.093133320574176 -0.9951174771834667
		outer loop
			vertex 103.46146396127097 -51.165390654363364 -120.528150986338
			vertex 34.149227617805536 -110.2679712323843 -117.27233164117933
			vertex -49.304476753156905 -110.85525058048006 -119.95725767321346
		endloop
	endfacet
	facet normal 0.0007282854752241806 -0.011427621047263425 -0.9999344373895055
		outer loop
			vertex 103.46146396127097 -51.165390654363364 -120.528150986338
			vertex -49.304476753156905 -110.85525058048006 -119.95725767321346
			vertex 7.483001237189171 90.95043815202371 -122.22220760986602
		endloop
	endfacet
	facet normal 0.9773230319004564 -0.07029169037307406 -0.19974676363184285
		outer loop
			vertex 98.51351525056089 10.604850747523415 -124.02939902960497
			vertex 116.81411650559949 -2.8068187814747034 -29.768407343167382
			vertex 105.40753566125841 -112.55549686382619 -46.95764241942925
		endloop
	endfacet
	facet normal -0.2689563547212317 0.3925270600336063 -0.8795368021842184
		outer loop
			vertex -52.851397499989616 -55.63273475594269 -120.74557080863087
			vertex -102.4463757555186 -79.74741822613214 -116.34186791834509
			vertex -76.16960572910284 -4.402237466703184 -90.75144582895518
		endloop
	endfacet
	facet normal -0.8384977772038443 -0.06489571193970871 -0.5410268239154604
		outer loop
			vertex -52.851397499989616 -55.63273475594269 -120.74557080863087
			vertex -76.16960572910284 -4.402237466703184 -90.75144582895518
			vertex -57.10586441545229 52.915143488021386 -127.17211129182033
		endloop
	endfacet
	facet normal 0.008828569655660819 -0.013706259329486154 -0.9998670885737906
		outer loop
			vertex -49.304476753156905 -110.85525058048006 -119.95725767321346
			vertex -52.851397499989616 -55.63273475594269 -120.74557080863087
			vertex 7.483001237189171 90.95043815202371 -122.22220760986602
		endloop
	endfacet
	facet normal 0.10818347918173687 -0.05452839810458166 -0.9926343680491237
		outer loop
			vertex -52.851397499989616 -55.63273475594269 -120.74557080863087
			vertex -57.10586441545229 52.915143488021386 -127.17211129182033
			vertex 7.483001237189171 90.95043815202371 -122.22220760986602
		endloop
	endfacet
	facet normal 0.448757489117637 0.15946070878661148 0.8793116616502396
		outer loop
			vertex -100.43602701366672 50.13467182217846 134.950698962748
			vertex -56.17394785441002 4.8715373834197635 120.56985021636137
			vertex -23.54209398984335 9.131420468753959 103.1436366791786
		endloop
	endfacet
	facet normal 0.14069094838905194 -0.42850530875702864 0.892518491353783
		outer loop
			vertex -100.43602701366672 50.13467182217846 134.950698962748
			vertex -23.54209398984335 9.131420468753959 103.1436366791786
			vertex -2.347668982740686 59.85522087548452 124.15558677486842
		endloop
	endfacet
	facet normal -0.23019618913187645 -0.4662126203655566 -0.8541987515332967
		outer loop
			vertex -76.16960572910284 -4.402237466703184 -90.75144582895518
			vertex -104.30610660112325 46.90698377899116 -111.17302942213428
			vertex -57.10586441545229 52.915143488021386 -127.17211129182033
		endloop
	endfacet
	facet normal 0.9861129666120189 -0.14556810394302738 -0.07994463205291202
		outer loop
			vertex 104.41758395354464 -103.58335340948543 116.17568069013942
			vertex 97.92494314352734 -106.8328211132175 42.006117511318735
			vertex 108.16414480055937 -31.630166941990865 31.372529794366528
		endloop
	endfacet
	facet normal 0.9958325354326347 -0.08637019121692692 -0.029287393925750728
		outer loop
			vertex 104.41758395354464 -103.58335340948543 116.17568069013942
			vertex 108.16414480055937 -31.630166941990865 31.372529794366528
			vertex 112.42692485865336 -13.061018265908388 121.55447490189545
		endloop
	endfacet
	facet normal -0.27003303443541926 0.14876811840238785 0.9512887086792385
		outer loop
			vertex 87.94460317605626 51.133869915591276 128.22168663891716
			vertex -23.54209398984335 9.131420468753959 103.1436366791786
			vertex -27.053713038830665 -111.37588535421128 120.99246830992342
		endloop
	endfacet
	facet normal 0.040258656197748065 -0.06281596471601333 0.997212813384359
		outer loop
			vertex 112.42692485865336 -13.061018265908388 121.55447490189545
			vertex -27.053713038830665 -111.37588535421128 120.99246830992342
			vertex 104.41758395354464 -103.58335340948543 116.17568069013942
		endloop
	endfacet
	facet normal 0.054253791109669366 -0.08265897514283044 0.9951000050138505
		outer loop
			vertex 112.42692485865336 -13.061018265908388 121.55447490189545
			vertex 87.94460317605626 51.133869915591276 128.22168663891716
			vertex -27.053713038830665 -111.37588535421128 120.99246830992342
		endloop
	endfacet
	facet normal 0.22186073367540296 -0.09147823027857581 0.9707778058021886
		outer loop
			vertex -56.17394785441002 4.8715373834197635 120.56985021636137
			vertex -100.43602701366672 50.13467182217846 134.950698962748
			vertex -101.15393344132826 -108.63789631934924 120.15332904167735
		endloop
	endfacet
	facet normal -0.7782052104689975 0.42761472108749 -0.45993727910245713
		outer loop
			vertex -76.16960572910284 -4.402237466703184 -90.75144582895518
			vertex -102.4463757555186 -79.74741822613214 -116.34186791834509
			vertex -109.1813967560629 -39.914614859320864 -67.91282650526227
		endloop
	endfacet
	facet normal -0.6504512563693529 0.12257435105160086 -0.7495923502489933
		outer loop
			vertex -76.16960572910284 -4.402237466703184 -90.75144582895518
			vertex -109.1813967560629 -39.914614859320864 -67.91282650526227
			vertex -110.52691931043137 20.5830975243598 -56.852595342625136
		endloop
	endfacet
	facet normal 0.9106172740314763 0.32014745961974517 0.26130783443002076
		outer loop
			vertex 104.16874468848164 47.777330891170095 75.79541283183971
			vertex 87.94460317605626 51.133869915591276 128.22168663891716
			vertex 112.42692485865336 -13.061018265908388 121.55447490189545
		endloop
	endfacet
	facet normal -0.07483984103268557 -0.062406892641524735 -0.9952408642861444
		outer loop
			vertex 103.46146396127097 -51.165390654363364 -120.528150986338
			vertex 7.483001237189171 90.95043815202371 -122.22220760986602
			vertex 98.51351525056089 10.604850747523415 -124.02939902960497
		endloop
	endfacet
	facet normal 0.0728623727147638 0.10486073383870863 -0.991814146471597
		outer loop
			vertex 7.483001237189171 90.95043815202371 -122.22220760986602
			vertex 102.94633064690697 54.20366601717251 -119.09421109276082
			vertex 98.51351525056089 10.604850747523415 -124.02939902960497
		endloop
	endfacet
	facet normal -0.9903061629575333 -0.1361371372913642 0.027575051376926202
		outer loop
			vertex -105.64148607580319 -97.57478676246137 13.609521534585838
			vertex -101.15393344132826 -108.63789631934924 120.15332904167735
			vertex -112.49612463229369 -37.34091432265541 64.81073727451076
		endloop
	endfacet
	facet normal -0.9576979902489426 -0.2417238201049762 0.15615426432535723
		outer loop
			vertex -105.64148607580319 -97.57478676246137 13.609521534585838
			vertex -112.49612463229369 -37.34091432265541 64.81073727451076
			vertex -118.2073622096841 -54.507415557004606 3.2101588499438094
		endloop
	endfacet
	facet normal 0.9867513151259123 0.11414661990774498 -0.11529263315979753
		outer loop
			vertex 95.38954323064536 55.19114768751297 7.997269601617063
			vertex 104.16874468848164 47.777330891170095 75.79541283183971
			vertex 108.16414480055937 -31.630166941990865 31.372529794366528
		endloop
	endfacet
	facet normal -0.979408477358764 -0.151795084471749 0.13310629890430564
		outer loop
			vertex -112.49612463229369 -37.34091432265541 64.81073727451076
			vertex -128.5893793939722 52.569614980822735 48.92949221877643
			vertex -118.2073622096841 -54.507415557004606 3.2101588499438094
		endloop
	endfacet
	facet normal 0.9894309374602555 -0.055064179852410085 -0.1341430434040541
		outer loop
			vertex 106.1617029955305 121.1082822376502 60.39383824995639
			vertex 104.16874468848164 47.777330891170095 75.79541283183971
			vertex 95.38954323064536 55.19114768751297 7.997269601617063
		endloop
	endfacet
	facet normal 0.9905372241028098 -0.13199768179148597 -0.03758483295657841
		outer loop
			vertex 106.1617029955305 121.1082822376502 60.39383824995639
			vertex 95.38954323064536 55.19114768751297 7.997269601617063
			vertex 97.52399790153322 107.78595467351624 -120.4624151155258
		endloop
	endfacet
	facet normal -0.9822924896124531 0.17980338901902346 -0.05265174401900151
		outer loop
			vertex -128.5893793939722 52.569614980822735 48.92949221877643
			vertex -118.49522136338237 122.41365454310835 99.12306971384169
			vertex -110.54350537729715 119.60470569557219 -58.819835501790294
		endloop
	endfacet
	facet normal 0.9913778787217219 0.10475383971202036 0.07871807064967623
		outer loop
			vertex 98.51351525056089 10.604850747523415 -124.02939902960497
			vertex 105.40753566125841 -112.55549686382619 -46.95764241942925
			vertex 107.31342918278096 -91.50037246131069 -98.97957041406698
		endloop
	endfacet
	facet normal 0.9964359210195124 0.07799601914488105 -0.03212594433705643
		outer loop
			vertex 98.51351525056089 10.604850747523415 -124.02939902960497
			vertex 107.31342918278096 -91.50037246131069 -98.97957041406698
			vertex 103.46146396127097 -51.165390654363364 -120.528150986338
		endloop
	endfacet
	facet normal -0.2777743075666464 0.9604731817695655 0.01824009751392177
		outer loop
			vertex -6.500676445710269 120.11481942658793 -5.842989712435838
			vertex -10.82109147742699 117.59366051943834 61.119657966874
			vertex 48.53180493448872 135.23434625109803 36.08164213166219
		endloop
	endfacet
	facet normal 0.06390047241613343 0.9978770179655901 -0.012577227082957321
		outer loop
			vertex -74.89462624282987 117.3733798966532 -93.95913646600093
			vertex 12.116640662774898 112.25243827079612 -58.18089226000666
			vertex -4.0646152189818565 112.5114119144946 -119.84520369443999
		endloop
	endfacet
	facet normal 0.09440701879054696 0.9929394734061838 0.07182281639515342
		outer loop
			vertex -74.89462624282987 117.3733798966532 -93.95913646600093
			vertex -4.0646152189818565 112.5114119144946 -119.84520369443999
			vertex -53.92564294568592 117.64415474217276 -125.26509668208746
		endloop
	endfacet
	facet normal 0.31341031904741695 -0.8841911069184699 -0.3463813770410982
		outer loop
			vertex 107.31342918278096 -91.50037246131069 -98.97957041406698
			vertex 105.40753566125841 -112.55549686382619 -46.95764241942925
			vertex 34.149227617805536 -110.2679712323843 -117.27233164117933
		endloop
	endfacet
	facet normal -0.1696588631800956 0.9387385893134637 -0.29997621752099896
		outer loop
			vertex 97.52399790153322 107.78595467351624 -120.4624151155258
			vertex 7.483001237189171 90.95043815202371 -122.22220760986602
			vertex 12.116640662774898 112.25243827079612 -58.18089226000666
		endloop
	endfacet
	facet normal -0.9826711558950069 -0.012790618901918143 0.1849156549351008
		outer loop
			vertex -112.49612463229369 -37.34091432265541 64.81073727451076
			vertex -101.15393344132826 -108.63789631934924 120.15332904167735
			vertex -100.43602701366672 50.13467182217846 134.950698962748
		endloop
	endfacet
	facet normal -0.9424911738612313 -0.12014224539710455 0.311891372218951
		outer loop
			vertex -112.49612463229369 -37.34091432265541 64.81073727451076
			vertex -100.43602701366672 50.13467182217846 134.950698962748
			vertex -113.31752908243925 57.49799439578692 98.8610315306687
		endloop
	endfacet
	facet normal -0.036969422999484754 -0.9993084379723888 0.003988428295659452
		outer loop
			vertex -45.94716966016858 -111.12012482508908 9.947088507919943
			vertex -27.053713038830665 -111.37588535421128 120.99246830992342
			vertex -101.15393344132826 -108.63789631934924 120.15332904167735
		endloop
	endfacet
	facet normal 0.8544318499249366 0.0844504908757894 0.512654199655761
		outer loop
			vertex 104.16874468848164 47.777330891170095 75.79541283183971
			vertex 106.1617029955305 121.1082822376502 60.39383824995639
			vertex 74.45946318878578 118.34425764905791 113.68673364901042
		endloop
	endfacet
endsolid exported
